<svg width="22" height="22" viewBox="0 0 22 22" fill="none" xmlns="http://www.w3.org/2000/svg">
<path d="M14.037 3.66669C13.9937 3.88944 13.9721 4.11587 13.9725 4.34278C13.9725 6.37869 15.6254 8.02913 17.6643 8.02913C17.8888 8.02802 18.1127 8.00647 18.3333 7.96474V15.273C18.3333 18.3477 16.5197 20.1667 13.4405 20.1667H6.73414C3.64694 20.1667 1.83331 18.3477 1.83331 15.273V8.57644C1.83331 5.50181 3.64694 3.66669 6.73414 3.66669H14.037ZM14.0403 9.16814C13.861 9.19393 13.6999 9.29117 13.5937 9.43766L11.3851 12.2789L8.8702 10.2989C8.72661 10.187 8.54396 10.1376 8.36347 10.1619C8.18298 10.1861 8.01988 10.2819 7.91099 10.4277L5.20263 13.9208C5.10744 14.0395 5.05618 14.1873 5.05754 14.3394L5.05992 14.4405C5.08618 14.7064 5.26851 14.9361 5.52966 15.0185C5.82345 15.1112 6.14291 14.9942 6.30693 14.7338L8.57196 11.804L11.0869 13.776C11.2299 13.8913 11.4138 13.9436 11.5962 13.9208C11.7786 13.898 11.9439 13.8022 12.0541 13.6552L14.6738 10.2747V10.2586C14.8981 9.95728 14.8409 9.53234 14.5448 9.30083C14.4016 9.19023 14.2195 9.14235 14.0403 9.16814Z" fill="#9896A3"/>
<path opacity="0.4" d="M17.875 6.41668C19.1406 6.41668 20.1666 5.39066 20.1666 4.12501C20.1666 2.85936 19.1406 1.83334 17.875 1.83334C16.6093 1.83334 15.5833 2.85936 15.5833 4.12501C15.5833 5.39066 16.6093 6.41668 17.875 6.41668Z" fill="#9896A3"/>
</svg>
