<svg width="247" height="162" viewBox="0 0 247 162" fill="none" xmlns="http://www.w3.org/2000/svg">
<path d="M0.5 23.5H227C231.728 23.5 235.224 23.5011 237.906 23.8617C240.574 24.2203 242.361 24.9264 243.718 26.2825C245.074 27.6386 245.78 29.4262 246.138 32.0939C246.499 34.776 246.5 38.2718 246.5 43V142C246.5 146.728 246.499 150.224 246.138 152.906C245.78 155.574 245.074 157.361 243.718 158.718C242.361 160.074 240.574 160.78 237.906 161.138C235.224 161.499 231.728 161.5 227 161.5H20C15.2718 161.5 11.776 161.499 9.09391 161.138C6.42621 160.78 4.63857 160.074 3.28249 158.718C1.9264 157.361 1.22032 155.574 0.861658 152.906C0.501062 150.224 0.5 146.728 0.5 142V23.5Z" fill="white"/>
<path fill-rule="evenodd" clip-rule="evenodd" d="M24 55.5714C24 50.8376 27.8376 47 32.5714 47H39.4286C44.1624 47 48 50.8376 48 55.5714V62.4286C48 67.1624 44.1624 71 39.4286 71H32.5714C27.8376 71 24 67.1624 24 62.4286V55.5714ZM32.5714 55.5714H39.4286V62.4286H32.5714V55.5714Z" fill="#FD71AF"/>
<path d="M60.408 66V55.52H57.176V54.08H65.176V55.52H61.992V66H60.408ZM69.3544 66.192C68.5224 66.192 67.781 65.9947 67.1304 65.6C66.4797 65.2053 65.9677 64.6667 65.5944 63.984C65.221 63.2907 65.0344 62.5173 65.0344 61.664C65.0344 60.8 65.2157 60.032 65.5784 59.36C65.9517 58.688 66.453 58.16 67.0824 57.776C67.7224 57.3813 68.437 57.184 69.2264 57.184C69.8664 57.184 70.4317 57.3013 70.9224 57.536C71.4237 57.76 71.845 58.0693 72.1864 58.464C72.5384 58.848 72.805 59.2907 72.9864 59.792C73.1784 60.2827 73.2744 60.7947 73.2744 61.328C73.2744 61.4453 73.2637 61.5787 73.2424 61.728C73.2317 61.8667 73.2157 62 73.1944 62.128H66.1224V60.848H72.3304L71.6264 61.424C71.7224 60.8693 71.669 60.3733 71.4664 59.936C71.2637 59.4987 70.965 59.152 70.5704 58.896C70.1757 58.64 69.7277 58.512 69.2264 58.512C68.725 58.512 68.2664 58.64 67.8504 58.896C67.4344 59.152 67.109 59.52 66.8744 60C66.6504 60.4693 66.5597 61.0293 66.6024 61.68C66.5597 62.3093 66.6557 62.864 66.8904 63.344C67.1357 63.8133 67.477 64.1813 67.9144 64.448C68.3624 64.704 68.8477 64.832 69.3704 64.832C69.9464 64.832 70.4317 64.6987 70.8264 64.432C71.221 64.1653 71.541 63.824 71.7864 63.408L73.0344 64.048C72.8637 64.4427 72.597 64.8053 72.2344 65.136C71.8824 65.456 71.461 65.712 70.9704 65.904C70.4904 66.096 69.9517 66.192 69.3544 66.192ZM77.6331 66.192C77.0678 66.192 76.5665 66.0907 76.1291 65.888C75.7025 65.6747 75.3665 65.3867 75.1211 65.024C74.8758 64.6507 74.7531 64.224 74.7531 63.744C74.7531 63.2853 74.8491 62.8747 75.0411 62.512C75.2438 62.1387 75.5531 61.824 75.9691 61.568C76.3958 61.312 76.9291 61.1307 77.5691 61.024L80.7691 60.496V61.744L77.9051 62.224C77.3505 62.32 76.9451 62.496 76.6891 62.752C76.4438 63.008 76.3211 63.3227 76.3211 63.696C76.3211 64.048 76.4598 64.3413 76.7371 64.576C77.0251 64.8107 77.3825 64.928 77.8091 64.928C78.3531 64.928 78.8225 64.816 79.2171 64.592C79.6225 64.3573 79.9371 64.0427 80.1611 63.648C80.3958 63.2533 80.5131 62.816 80.5131 62.336V60.144C80.5131 59.6747 80.3371 59.296 79.9851 59.008C79.6438 58.7093 79.1905 58.56 78.6251 58.56C78.1345 58.56 77.6971 58.688 77.3131 58.944C76.9398 59.1893 76.6625 59.52 76.4811 59.936L75.1851 59.264C75.3451 58.8693 75.6011 58.5173 75.9531 58.208C76.3051 57.888 76.7158 57.6373 77.1851 57.456C77.6545 57.2747 78.1451 57.184 78.6571 57.184C79.3185 57.184 79.8998 57.312 80.4011 57.568C80.9025 57.8133 81.2918 58.16 81.5691 58.608C81.8571 59.0453 82.0011 59.5573 82.0011 60.144V66H80.5451V64.368L80.8171 64.464C80.6358 64.8053 80.3905 65.104 80.0811 65.36C79.7718 65.616 79.4091 65.8187 78.9931 65.968C78.5771 66.1173 78.1238 66.192 77.6331 66.192ZM84.3083 66V57.376H85.7643V59.136L85.5563 58.864C85.7696 58.32 86.1109 57.904 86.5803 57.616C87.0496 57.328 87.5776 57.184 88.1643 57.184C88.8363 57.184 89.4389 57.3707 89.9723 57.744C90.5163 58.1173 90.8896 58.608 91.0923 59.216L90.6763 59.232C90.9003 58.56 91.2789 58.0533 91.8123 57.712C92.3456 57.36 92.9376 57.184 93.5883 57.184C94.1856 57.184 94.7243 57.3227 95.2043 57.6C95.6949 57.8773 96.0843 58.2613 96.3723 58.752C96.6603 59.2427 96.8043 59.7973 96.8043 60.416V66H95.3003V60.896C95.3003 60.416 95.2149 60.0107 95.0443 59.68C94.8736 59.3493 94.6389 59.0933 94.3403 58.912C94.0523 58.72 93.7109 58.624 93.3163 58.624C92.9323 58.624 92.5856 58.72 92.2763 58.912C91.9776 59.0933 91.7376 59.3547 91.5563 59.696C91.3856 60.0267 91.3003 60.4267 91.3003 60.896V66H89.7963V60.896C89.7963 60.416 89.7109 60.0107 89.5403 59.68C89.3696 59.3493 89.1349 59.0933 88.8363 58.912C88.5483 58.72 88.2069 58.624 87.8123 58.624C87.4283 58.624 87.0816 58.72 86.7723 58.912C86.4736 59.0933 86.2336 59.3547 86.0523 59.696C85.8816 60.0267 85.7963 60.4267 85.7963 60.896V66H84.3083ZM101.683 69.2V57.376H103.139V59.232L102.947 58.864C103.267 58.352 103.705 57.9467 104.259 57.648C104.814 57.3387 105.449 57.184 106.163 57.184C106.974 57.184 107.699 57.3813 108.339 57.776C108.99 58.1707 109.502 58.7093 109.875 59.392C110.249 60.064 110.435 60.832 110.435 61.696C110.435 62.5387 110.249 63.3013 109.875 63.984C109.502 64.6667 108.99 65.2053 108.339 65.6C107.699 65.9947 106.969 66.192 106.147 66.192C105.454 66.192 104.819 66.0373 104.243 65.728C103.678 65.4187 103.241 64.9813 102.931 64.416L103.171 64.16V69.2H101.683ZM106.035 64.752C106.579 64.752 107.065 64.6187 107.491 64.352C107.918 64.0853 108.249 63.7227 108.483 63.264C108.729 62.7947 108.851 62.272 108.851 61.696C108.851 61.0987 108.729 60.576 108.483 60.128C108.249 59.6693 107.918 59.3067 107.491 59.04C107.065 58.7627 106.579 58.624 106.035 58.624C105.491 58.624 105.001 58.7573 104.563 59.024C104.137 59.2907 103.795 59.6587 103.539 60.128C103.294 60.5867 103.171 61.1093 103.171 61.696C103.171 62.272 103.294 62.7947 103.539 63.264C103.795 63.7227 104.137 64.0853 104.563 64.352C105.001 64.6187 105.491 64.752 106.035 64.752ZM112.386 66V57.376H113.842V58.96L113.682 58.736C113.885 58.2453 114.194 57.8827 114.61 57.648C115.026 57.4027 115.533 57.28 116.13 57.28H116.658V58.688H115.906C115.298 58.688 114.808 58.88 114.434 59.264C114.061 59.6373 113.874 60.1707 113.874 60.864V66H112.386ZM122.076 66.192C121.244 66.192 120.492 66 119.82 65.616C119.148 65.2213 118.615 64.6827 118.22 64C117.825 63.3173 117.628 62.544 117.628 61.68C117.628 60.816 117.82 60.048 118.204 59.376C118.599 58.704 119.132 58.1707 119.804 57.776C120.476 57.3813 121.233 57.184 122.076 57.184C122.908 57.184 123.66 57.3813 124.332 57.776C125.004 58.16 125.532 58.688 125.916 59.36C126.311 60.032 126.508 60.8053 126.508 61.68C126.508 62.5547 126.305 63.3333 125.9 64.016C125.495 64.688 124.956 65.2213 124.284 65.616C123.623 66 122.887 66.192 122.076 66.192ZM122.076 64.752C122.609 64.752 123.089 64.6187 123.516 64.352C123.953 64.0853 124.295 63.7173 124.54 63.248C124.796 62.7787 124.924 62.256 124.924 61.68C124.924 61.0933 124.796 60.576 124.54 60.128C124.295 59.6693 123.953 59.3067 123.516 59.04C123.089 58.7627 122.609 58.624 122.076 58.624C121.532 58.624 121.041 58.7627 120.604 59.04C120.177 59.3067 119.836 59.6693 119.58 60.128C119.324 60.576 119.196 61.0933 119.196 61.68C119.196 62.256 119.324 62.7787 119.58 63.248C119.836 63.7173 120.177 64.0853 120.604 64.352C121.041 64.6187 121.532 64.752 122.076 64.752ZM126.977 69.52C126.881 69.52 126.764 69.5147 126.625 69.504C126.486 69.4933 126.374 69.4773 126.289 69.456V68.112C126.502 68.144 126.716 68.16 126.929 68.16C127.366 68.16 127.729 68.0373 128.017 67.792C128.305 67.5467 128.449 67.1733 128.449 66.672V57.376H129.937V66.672C129.937 67.2907 129.809 67.808 129.553 68.224C129.297 68.6507 128.945 68.9707 128.497 69.184C128.049 69.408 127.542 69.52 126.977 69.52ZM128.449 56V54.08H129.937V56H128.449ZM136.214 66.192C135.382 66.192 134.64 65.9947 133.99 65.6C133.339 65.2053 132.827 64.6667 132.454 63.984C132.08 63.2907 131.894 62.5173 131.894 61.664C131.894 60.8 132.075 60.032 132.438 59.36C132.811 58.688 133.312 58.16 133.942 57.776C134.582 57.3813 135.296 57.184 136.086 57.184C136.726 57.184 137.291 57.3013 137.782 57.536C138.283 57.76 138.704 58.0693 139.046 58.464C139.398 58.848 139.664 59.2907 139.846 59.792C140.038 60.2827 140.134 60.7947 140.134 61.328C140.134 61.4453 140.123 61.5787 140.102 61.728C140.091 61.8667 140.075 62 140.054 62.128H132.982V60.848H139.19L138.486 61.424C138.582 60.8693 138.528 60.3733 138.326 59.936C138.123 59.4987 137.824 59.152 137.43 58.896C137.035 58.64 136.587 58.512 136.086 58.512C135.584 58.512 135.126 58.64 134.71 58.896C134.294 59.152 133.968 59.52 133.734 60C133.51 60.4693 133.419 61.0293 133.462 61.68C133.419 62.3093 133.515 62.864 133.75 63.344C133.995 63.8133 134.336 64.1813 134.774 64.448C135.222 64.704 135.707 64.832 136.23 64.832C136.806 64.832 137.291 64.6987 137.686 64.432C138.08 64.1653 138.4 63.824 138.646 63.408L139.894 64.048C139.723 64.4427 139.456 64.8053 139.094 65.136C138.742 65.456 138.32 65.712 137.83 65.904C137.35 66.096 136.811 66.192 136.214 66.192ZM146.074 66.192C145.231 66.192 144.479 65.9947 143.818 65.6C143.167 65.2053 142.655 64.6667 142.282 63.984C141.909 63.3013 141.722 62.5333 141.722 61.68C141.722 60.816 141.909 60.048 142.282 59.376C142.655 58.704 143.167 58.1707 143.818 57.776C144.479 57.3813 145.231 57.184 146.074 57.184C146.639 57.184 147.167 57.2853 147.658 57.488C148.149 57.6907 148.581 57.9627 148.954 58.304C149.327 58.6453 149.599 59.0453 149.77 59.504L148.442 60.144C148.239 59.696 147.93 59.3333 147.514 59.056C147.098 58.768 146.618 58.624 146.074 58.624C145.551 58.624 145.077 58.7573 144.65 59.024C144.234 59.2907 143.903 59.6533 143.658 60.112C143.413 60.5707 143.29 61.0987 143.29 61.696C143.29 62.272 143.413 62.7947 143.658 63.264C143.903 63.7227 144.234 64.0853 144.65 64.352C145.077 64.6187 145.551 64.752 146.074 64.752C146.618 64.752 147.098 64.6133 147.514 64.336C147.93 64.048 148.239 63.6693 148.442 63.2L149.77 63.872C149.599 64.32 149.327 64.72 148.954 65.072C148.581 65.4133 148.149 65.6853 147.658 65.888C147.167 66.0907 146.639 66.192 146.074 66.192ZM155.219 66.096C154.376 66.096 153.725 65.856 153.267 65.376C152.819 64.896 152.595 64.2187 152.595 63.344V58.8H151.027V57.376H151.347C151.731 57.376 152.035 57.2587 152.259 57.024C152.483 56.7893 152.595 56.48 152.595 56.096V55.392H154.083V57.376H156.019V58.8H154.083V63.296C154.083 63.584 154.125 63.8347 154.211 64.048C154.307 64.2613 154.461 64.432 154.674 64.56C154.888 64.6773 155.171 64.736 155.523 64.736C155.597 64.736 155.688 64.7307 155.795 64.72C155.912 64.7093 156.019 64.6987 156.115 64.688V66C155.976 66.032 155.821 66.0533 155.651 66.064C155.48 66.0853 155.336 66.096 155.219 66.096ZM161.146 66.192C160.282 66.192 159.53 65.9787 158.89 65.552C158.25 65.1253 157.797 64.5493 157.53 63.824L158.714 63.248C158.96 63.76 159.296 64.1653 159.722 64.464C160.149 64.7627 160.624 64.912 161.146 64.912C161.616 64.912 162.005 64.8 162.314 64.576C162.624 64.352 162.778 64.0587 162.778 63.696C162.778 63.44 162.704 63.2373 162.554 63.088C162.416 62.928 162.245 62.8053 162.042 62.72C161.84 62.624 161.653 62.5547 161.482 62.512L160.186 62.144C159.408 61.92 158.837 61.6 158.474 61.184C158.122 60.768 157.946 60.2827 157.946 59.728C157.946 59.216 158.074 58.7733 158.33 58.4C158.597 58.016 158.954 57.7173 159.402 57.504C159.861 57.2907 160.373 57.184 160.938 57.184C161.696 57.184 162.373 57.376 162.97 57.76C163.578 58.144 164.01 58.6827 164.266 59.376L163.05 59.936C162.858 59.488 162.57 59.136 162.186 58.88C161.802 58.6133 161.37 58.48 160.89 58.48C160.453 58.48 160.106 58.592 159.85 58.816C159.594 59.0293 159.466 59.3013 159.466 59.632C159.466 59.8773 159.53 60.08 159.658 60.24C159.786 60.3893 159.941 60.5067 160.122 60.592C160.304 60.6667 160.48 60.7307 160.65 60.784L162.058 61.2C162.762 61.4027 163.306 61.7173 163.69 62.144C164.085 62.5707 164.282 63.0827 164.282 63.68C164.282 64.16 164.149 64.592 163.882 64.976C163.616 65.36 163.248 65.6587 162.778 65.872C162.309 66.0853 161.765 66.192 161.146 66.192Z" fill="#82808F"/>
<path d="M22.132 137L25.396 128.06H26.428L29.692 137H28.684L27.916 134.816H23.92L23.14 137H22.132ZM24.232 133.916H27.58L25.768 128.78H26.056L24.232 133.916ZM30.7521 139.4V130.568H31.6521V132.008L31.5081 131.756C31.7641 131.348 32.1041 131.024 32.5281 130.784C32.9601 130.544 33.4521 130.424 34.0041 130.424C34.6121 130.424 35.1521 130.572 35.6241 130.868C36.1041 131.156 36.4801 131.552 36.7521 132.056C37.0321 132.56 37.1721 133.136 37.1721 133.784C37.1721 134.424 37.0321 135 36.7521 135.512C36.4801 136.016 36.1041 136.416 35.6241 136.712C35.1521 137 34.6121 137.144 34.0041 137.144C33.4521 137.144 32.9521 137.02 32.5041 136.772C32.0641 136.516 31.7321 136.156 31.5081 135.692L31.6521 135.56V139.4H30.7521ZM33.9561 136.244C34.3881 136.244 34.7721 136.136 35.1081 135.92C35.4521 135.704 35.7201 135.412 35.9121 135.044C36.1121 134.668 36.2121 134.248 36.2121 133.784C36.2121 133.312 36.1121 132.892 35.9121 132.524C35.7201 132.156 35.4521 131.864 35.1081 131.648C34.7721 131.432 34.3881 131.324 33.9561 131.324C33.5241 131.324 33.1321 131.432 32.7801 131.648C32.4361 131.864 32.1601 132.16 31.9521 132.536C31.7521 132.904 31.6521 133.32 31.6521 133.784C31.6521 134.248 31.7521 134.668 31.9521 135.044C32.1601 135.412 32.4361 135.704 32.7801 135.92C33.1321 136.136 33.5241 136.244 33.9561 136.244ZM38.756 137V130.568H39.656V131.624L39.536 131.468C39.688 131.164 39.916 130.924 40.22 130.748C40.532 130.572 40.908 130.484 41.348 130.484H41.756V131.384H41.192C40.728 131.384 40.356 131.528 40.076 131.816C39.796 132.104 39.656 132.512 39.656 133.04V137H38.756ZM44.6218 137V136.4L47.1178 133.652C47.6058 133.116 48.0018 132.672 48.3058 132.32C48.6178 131.968 48.8498 131.648 49.0018 131.36C49.1538 131.072 49.2298 130.76 49.2298 130.424C49.2298 129.888 49.0738 129.476 48.7618 129.188C48.4498 128.9 48.0338 128.756 47.5138 128.756C46.9778 128.756 46.5258 128.908 46.1578 129.212C45.7978 129.516 45.5538 129.94 45.4258 130.484L44.5498 130.292C44.6538 129.804 44.8418 129.384 45.1138 129.032C45.3858 128.68 45.7258 128.408 46.1338 128.216C46.5418 128.016 46.9978 127.916 47.5018 127.916C48.0378 127.916 48.5058 128.024 48.9058 128.24C49.3058 128.456 49.6178 128.752 49.8418 129.128C50.0738 129.504 50.1898 129.936 50.1898 130.424C50.1898 130.76 50.1178 131.084 49.9738 131.396C49.8378 131.708 49.6298 132.044 49.3498 132.404C49.0698 132.764 48.7098 133.184 48.2698 133.664L46.0018 136.16H50.4298V137H44.6218ZM52.0811 138.56V138.14C52.3211 138.076 52.4971 137.952 52.6091 137.768C52.7211 137.584 52.7771 137.328 52.7771 137H52.3211V135.68H53.2811V136.688C53.2811 137.208 53.1811 137.624 52.9811 137.936C52.7811 138.256 52.4811 138.464 52.0811 138.56ZM57.0905 137V136.4L59.5865 133.652C60.0745 133.116 60.4705 132.672 60.7745 132.32C61.0865 131.968 61.3185 131.648 61.4705 131.36C61.6225 131.072 61.6985 130.76 61.6985 130.424C61.6985 129.888 61.5425 129.476 61.2305 129.188C60.9185 128.9 60.5025 128.756 59.9825 128.756C59.4465 128.756 58.9945 128.908 58.6265 129.212C58.2665 129.516 58.0225 129.94 57.8945 130.484L57.0185 130.292C57.1225 129.804 57.3105 129.384 57.5825 129.032C57.8545 128.68 58.1945 128.408 58.6025 128.216C59.0105 128.016 59.4665 127.916 59.9705 127.916C60.5065 127.916 60.9745 128.024 61.3745 128.24C61.7745 128.456 62.0865 128.752 62.3105 129.128C62.5425 129.504 62.6585 129.936 62.6585 130.424C62.6585 130.76 62.5865 131.084 62.4425 131.396C62.3065 131.708 62.0985 132.044 61.8185 132.404C61.5385 132.764 61.1785 133.184 60.7385 133.664L58.4705 136.16H62.8985V137H57.0905ZM67.9938 137.144C67.2898 137.144 66.6698 136.952 66.1338 136.568C65.6058 136.176 65.1938 135.636 64.8978 134.948C64.6018 134.252 64.4538 133.444 64.4538 132.524C64.4538 131.604 64.6018 130.8 64.8978 130.112C65.1938 129.416 65.6058 128.876 66.1338 128.492C66.6618 128.108 67.2778 127.916 67.9818 127.916C68.6858 127.916 69.3018 128.108 69.8298 128.492C70.3578 128.876 70.7698 129.416 71.0658 130.112C71.3618 130.8 71.5098 131.604 71.5098 132.524C71.5098 133.444 71.3618 134.252 71.0658 134.948C70.7778 135.644 70.3698 136.184 69.8418 136.568C69.3138 136.952 68.6978 137.144 67.9938 137.144ZM67.9938 136.244C68.5058 136.244 68.9538 136.088 69.3378 135.776C69.7218 135.464 70.0218 135.032 70.2378 134.48C70.4538 133.92 70.5618 133.268 70.5618 132.524C70.5618 131.78 70.4538 131.132 70.2378 130.58C70.0218 130.02 69.7218 129.588 69.3378 129.284C68.9538 128.972 68.5018 128.816 67.9818 128.816C67.4698 128.816 67.0218 128.972 66.6378 129.284C66.2538 129.588 65.9538 130.02 65.7378 130.58C65.5218 131.132 65.4138 131.78 65.4138 132.524C65.4138 133.26 65.5218 133.908 65.7378 134.468C65.9538 135.028 66.2538 135.464 66.6378 135.776C67.0298 136.088 67.4818 136.244 67.9938 136.244ZM73.0749 137V136.4L75.5709 133.652C76.0589 133.116 76.4549 132.672 76.7589 132.32C77.0709 131.968 77.3029 131.648 77.4549 131.36C77.6069 131.072 77.6829 130.76 77.6829 130.424C77.6829 129.888 77.5269 129.476 77.2149 129.188C76.9029 128.9 76.4869 128.756 75.9669 128.756C75.4309 128.756 74.9789 128.908 74.6109 129.212C74.2509 129.516 74.0069 129.94 73.8789 130.484L73.0029 130.292C73.1069 129.804 73.2949 129.384 73.5669 129.032C73.8389 128.68 74.1789 128.408 74.5869 128.216C74.9949 128.016 75.4509 127.916 75.9549 127.916C76.4909 127.916 76.9589 128.024 77.3589 128.24C77.7589 128.456 78.0709 128.752 78.2949 129.128C78.5269 129.504 78.6429 129.936 78.6429 130.424C78.6429 130.76 78.5709 131.084 78.4269 131.396C78.2909 131.708 78.0829 132.044 77.8029 132.404C77.5229 132.764 77.1629 133.184 76.7229 133.664L74.4549 136.16H78.8829V137H73.0749ZM83.1022 137.144C82.6382 137.144 82.2102 137.064 81.8182 136.904C81.4262 136.744 81.0822 136.516 80.7862 136.22C80.4982 135.924 80.2782 135.572 80.1262 135.164L80.8942 134.804C81.0782 135.268 81.3662 135.636 81.7582 135.908C82.1502 136.172 82.5982 136.304 83.1022 136.304C83.5022 136.304 83.8582 136.228 84.1702 136.076C84.4822 135.916 84.7262 135.688 84.9022 135.392C85.0782 135.096 85.1662 134.736 85.1662 134.312C85.1662 133.888 85.0742 133.528 84.8902 133.232C84.7142 132.936 84.4702 132.712 84.1582 132.56C83.8462 132.408 83.4902 132.332 83.0902 132.332C82.9862 132.332 82.8702 132.336 82.7422 132.344C82.6222 132.352 82.5222 132.364 82.4422 132.38L82.2502 131.96L84.6622 128.9H80.5462V128.06H85.7422V128.9L83.4862 131.744L83.3662 131.588C83.9022 131.604 84.3782 131.732 84.7942 131.972C85.2102 132.204 85.5342 132.52 85.7662 132.92C86.0062 133.32 86.1262 133.784 86.1262 134.312C86.1262 134.84 85.9982 135.32 85.7422 135.752C85.4862 136.176 85.1302 136.516 84.6742 136.772C84.2182 137.02 83.6942 137.144 83.1022 137.144Z" fill="#A3A3A3"/>
<path d="M209 132.5C209 133.605 208.105 134.5 207 134.5C205.895 134.5 205 133.605 205 132.5C205 131.395 205.895 130.5 207 130.5C208.105 130.5 209 131.395 209 132.5Z" fill="#56555C"/>
<path d="M217 132.5C217 133.605 216.105 134.5 215 134.5C213.895 134.5 213 133.605 213 132.5C213 131.395 213.895 130.5 215 130.5C216.105 130.5 217 131.395 217 132.5Z" fill="#56555C"/>
<path d="M225 132.5C225 133.605 224.105 134.5 223 134.5C221.895 134.5 221 133.605 221 132.5C221 131.395 221.895 130.5 223 130.5C224.105 130.5 225 131.395 225 132.5Z" fill="#56555C"/>
<path d="M0.5 23.5H227C231.728 23.5 235.224 23.5011 237.906 23.8617C240.574 24.2203 242.361 24.9264 243.718 26.2825C245.074 27.6386 245.78 29.4262 246.138 32.0939C246.499 34.776 246.5 38.2718 246.5 43V142C246.5 146.728 246.499 150.224 246.138 152.906C245.78 155.574 245.074 157.361 243.718 158.718C242.361 160.074 240.574 160.78 237.906 161.138C235.224 161.499 231.728 161.5 227 161.5H20C15.2718 161.5 11.776 161.499 9.09391 161.138C6.42621 160.78 4.63857 160.074 3.28249 158.718C1.9264 157.361 1.22032 155.574 0.861658 152.906C0.501062 150.224 0.5 146.728 0.5 142V23.5Z" stroke="#E6E4F0"/>
<path d="M101.8 7.6L123 23.5H0.5V20C0.5 15.2718 0.501062 11.776 0.861658 9.09391C1.22032 6.42621 1.9264 4.63857 3.28249 3.28249C4.63857 1.9264 6.42621 1.22032 9.09391 0.861658C11.776 0.501062 15.2718 0.5 20 0.5H80.5C86.4796 0.5 89.3576 0.505916 92.034 1.39804C94.7104 2.29017 97.0163 4.01223 101.8 7.6Z" fill="white" stroke="#E6E4F0"/>
<path d="M1 23H121.506L122.797 24H1V23Z" fill="white"/>
</svg>
