<svg width="22" height="22" viewBox="0 0 22 22" fill="none" xmlns="http://www.w3.org/2000/svg">
<path fill-rule="evenodd" clip-rule="evenodd" d="M14.9728 1.83331C18.0794 1.83331 20.1666 4.01315 20.1666 7.25631V14.7436C20.1666 17.9868 18.0794 20.1666 14.9719 20.1666H7.02623C3.91965 20.1666 1.83331 17.9868 1.83331 14.7436V7.25631C1.83331 4.01315 3.91965 1.83331 7.02623 1.83331H14.9728ZM14.9728 3.20831H7.02623C4.70706 3.20831 3.20831 4.7969 3.20831 7.25631V14.7436C3.20831 17.2031 4.70706 18.7916 7.02623 18.7916H14.9719C17.292 18.7916 18.7916 17.2031 18.7916 14.7436V7.25631C18.7916 4.7969 17.2929 3.20831 14.9728 3.20831ZM10.9992 6.30995C11.3787 6.30995 11.6867 6.61795 11.6867 6.99745V10.6054L14.4605 12.2582C14.7859 12.4534 14.8932 12.8751 14.6988 13.2014C14.5696 13.4169 14.3413 13.5369 14.1076 13.5369C13.9875 13.5369 13.8665 13.5058 13.7556 13.4407L10.6472 11.5863C10.44 11.4616 10.3117 11.237 10.3117 10.9959V6.99745C10.3117 6.61795 10.6197 6.30995 10.9992 6.30995Z" fill="#56555C"/>
</svg>
