<svg width="22" height="22" viewBox="0 0 22 22" fill="none" xmlns="http://www.w3.org/2000/svg">
<path opacity="0.4" d="M15.2757 20.1572H6.72368C5.3977 20.2396 4.09553 19.7799 3.1157 18.8843C2.22011 17.9036 1.76042 16.6015 1.84283 15.2764V6.72357C1.76042 5.39852 2.2192 4.09636 3.11478 3.11563C4.09553 2.22005 5.3977 1.76036 6.72368 1.84277H15.2757C16.5998 1.76036 17.9011 2.21913 18.8809 3.11471C19.7756 4.09636 20.2362 5.3976 20.1574 6.72357V15.2764C20.2389 16.6015 19.7802 17.9036 18.8846 18.8843C17.9038 19.7799 16.6017 20.2396 15.2757 20.1572Z" fill="#56555C"/>
<path d="M15.6334 9.53108L9.62666 15.5677C9.31428 15.8717 8.90372 16.0416 8.4753 16.0416H6.37786C6.26183 16.0416 6.15473 15.9969 6.0744 15.9164C5.99408 15.836 5.95837 15.7286 5.95837 15.6124L6.01193 13.4929C6.02085 13.0725 6.19043 12.679 6.48497 12.3839L10.7423 8.11807C10.8137 8.04652 10.9387 8.04652 11.0101 8.11807L12.5033 9.6053C12.6015 9.70278 12.7443 9.76628 12.896 9.76628C13.2262 9.76628 13.4851 9.49799 13.4851 9.17604C13.4851 9.01506 13.4226 8.87197 13.3244 8.76465C13.2976 8.72888 11.8758 7.31319 11.8758 7.31319C11.7866 7.22376 11.7866 7.07173 11.8758 6.9823L12.4738 6.37417C13.0272 5.8197 13.9197 5.8197 14.4731 6.37417L15.6334 7.53677C16.1778 8.0823 16.1778 8.97661 15.6334 9.53108Z" fill="#56555C"/>
</svg>
