<svg width="24" height="24" viewBox="0 0 24 24" fill="none" xmlns="http://www.w3.org/2000/svg">
<path opacity="0.4" d="M20.461 15.9579H13.8855C13.0533 15.9579 12.3777 16.6217 12.3777 17.4393C12.3777 18.2558 13.0533 18.9206 13.8855 18.9206H20.461C21.2933 18.9206 21.9688 18.2558 21.9688 17.4393C21.9688 16.6217 21.2933 15.9579 20.461 15.9579Z" fill="#56555C"/>
<path opacity="0.4" d="M21.9677 6.1399C21.9677 5.32337 21.2921 4.65967 20.461 4.65967H13.8855C13.0533 4.65967 12.3777 5.32337 12.3777 6.1399C12.3777 6.95753 13.0533 7.62123 13.8855 7.62123H20.461C21.2921 7.62123 21.9677 6.95753 21.9677 6.1399Z" fill="#56555C"/>
<path d="M8.87774 6.13991C8.87774 8.00658 7.33886 9.51957 5.43887 9.51957C3.53999 9.51957 2 8.00658 2 6.13991C2 4.27434 3.53999 2.76135 5.43887 2.76135C7.33886 2.76135 8.87774 4.27434 8.87774 6.13991Z" fill="#56555C"/>
<path d="M8.87774 17.3992C8.87774 19.2648 7.33886 20.7778 5.43887 20.7778C3.53999 20.7778 2 19.2648 2 17.3992C2 15.5325 3.53999 14.0196 5.43887 14.0196C7.33886 14.0196 8.87774 15.5325 8.87774 17.3992Z" fill="#56555C"/>
</svg>
