<svg width="22" height="25" viewBox="0 0 22 25" fill="none" xmlns="http://www.w3.org/2000/svg">
<path opacity="0.4" d="M16.1223 0.444458H5.87889C2.16333 0.444458 0 2.62001 0 6.34779V18.9733C0 22.7622 2.16333 24.8889 5.87889 24.8889H16.1223C19.8978 24.8889 22 22.7622 22 18.9733V6.34779C22 2.62001 19.8978 0.444458 16.1223 0.444458Z" fill="#49CCF9"/>
<path d="M6.2089 17.2378H15.7911C16.2788 17.2867 16.6467 17.7022 16.6467 18.2034C16.6467 18.691 16.2788 19.1078 15.7911 19.1567H6.2089C5.84224 19.2056 5.48779 19.0223 5.29224 18.7167C5.09668 18.3989 5.09668 17.9956 5.29224 17.69C5.48779 17.3722 5.84224 17.2011 6.2089 17.2378ZM15.7911 11.6633C16.3167 11.6633 16.7445 12.0923 16.7445 12.6178C16.7445 13.1434 16.3167 13.5711 15.7911 13.5711H6.2089C5.68212 13.5711 5.25557 13.1434 5.25557 12.6178C5.25557 12.0923 5.68212 11.6633 6.2089 11.6633H15.7911ZM9.86212 6.12781C10.3889 6.12781 10.8167 6.55559 10.8167 7.07992C10.8167 7.61892 10.3889 8.0467 9.86212 8.0467H6.2089C5.68212 8.0467 5.25557 7.61892 5.25557 7.09336C5.25557 6.56781 5.68212 6.14003 6.2089 6.14003V6.12781H9.86212Z" fill="#49CCF9"/>
</svg>
