<svg width="22" height="25" viewBox="0 0 22 25" fill="none" xmlns="http://www.w3.org/2000/svg">
<path opacity="0.4" d="M16.1223 0.333313H5.87889C2.16333 0.333313 0 2.50887 0 6.23665V18.8622C0 22.6511 2.16333 24.7778 5.87889 24.7778H16.1223C19.8978 24.7778 22 22.6511 22 18.8622V6.23665C22 2.50887 19.8978 0.333313 16.1223 0.333313Z" fill="#00B884"/>
<path d="M6.2089 17.1267H15.7911C16.2788 17.1756 16.6467 17.5911 16.6467 18.0922C16.6467 18.5799 16.2788 18.9967 15.7911 19.0456H6.2089C5.84224 19.0944 5.48779 18.9111 5.29224 18.6055C5.09668 18.2878 5.09668 17.8844 5.29224 17.5789C5.48779 17.2611 5.84224 17.09 6.2089 17.1267ZM15.7911 11.5521C16.3167 11.5521 16.7445 11.9811 16.7445 12.5067C16.7445 13.0322 16.3167 13.46 15.7911 13.46H6.2089C5.68212 13.46 5.25557 13.0322 5.25557 12.5067C5.25557 11.9811 5.68212 11.5521 6.2089 11.5521H15.7911ZM9.86212 6.01666C10.3889 6.01666 10.8167 6.44444 10.8167 6.96877C10.8167 7.50777 10.3889 7.93555 9.86212 7.93555H6.2089C5.68212 7.93555 5.25557 7.50777 5.25557 6.98222C5.25557 6.45666 5.68212 6.02888 6.2089 6.02888V6.01666H9.86212Z" fill="#00B884"/>
</svg>
