<svg width="22" height="26" viewBox="0 0 22 26" fill="none" xmlns="http://www.w3.org/2000/svg">
<path opacity="0.4" d="M16.1223 0.888916H5.87889C2.16333 0.888916 0 3.06447 0 6.79225V19.4178C0 23.2067 2.16333 25.3334 5.87889 25.3334H16.1223C19.8978 25.3334 22 23.2067 22 19.4178V6.79225C22 3.06447 19.8978 0.888916 16.1223 0.888916Z" fill="#7B68EE"/>
<path d="M6.2089 17.6823H15.7911C16.2788 17.7312 16.6467 18.1467 16.6467 18.6478C16.6467 19.1355 16.2788 19.5523 15.7911 19.6012H6.2089C5.84224 19.65 5.48779 19.4667 5.29224 19.1612C5.09668 18.8434 5.09668 18.44 5.29224 18.1345C5.48779 17.8167 5.84224 17.6456 6.2089 17.6823ZM15.7911 12.1077C16.3167 12.1077 16.7445 12.5367 16.7445 13.0623C16.7445 13.5878 16.3167 14.0156 15.7911 14.0156H6.2089C5.68212 14.0156 5.25557 13.5878 5.25557 13.0623C5.25557 12.5367 5.68212 12.1077 6.2089 12.1077H15.7911ZM9.86212 6.57227C10.3889 6.57227 10.8167 7.00004 10.8167 7.52438C10.8167 8.06338 10.3889 8.49115 9.86212 8.49115H6.2089C5.68212 8.49115 5.25557 8.06338 5.25557 7.53782C5.25557 7.01227 5.68212 6.58449 6.2089 6.58449V6.57227H9.86212Z" fill="#7B68EE"/>
</svg>
